<?xml version="1.0" standalone="no"?>
<!DOCTYPE svg PUBLIC "-//W3C//DTD SVG 20010904//EN"
 "http://www.w3.org/TR/2001/REC-SVG-20010904/DTD/svg10.dtd">
<svg version="1.0" xmlns="http://www.w3.org/2000/svg"
 width="618.000000pt" height="787.000000pt" viewBox="0 0 618.000000 787.000000"
 preserveAspectRatio="xMidYMid meet">
<metadata>
Created by potrace 1.15, written by Peter Selinger 2001-2017
</metadata>
<g transform="translate(0.000000,787.000000) scale(0.100000,-0.100000)"
fill="#000000" stroke="none">
<path d="M2064 6608 c-600 -602 -1039 -1050 -1081 -1103 -223 -286 -379 -599
-463 -935 -89 -352 -96 -763 -19 -1119 81 -374 249 -722 490 -1020 42 -53 531
-549 1086 -1104 l1008 -1007 1006 1007 c598 600 1036 1047 1082 1104 283 357
459 767 523 1224 23 163 23 469 0 630 -64 448 -213 812 -480 1170 -76 102
-243 274 -1110 1143 -561 562 -1023 1022 -1026 1022 -3 0 -460 -456 -1016
-1012z m2093 -1128 l832 -835 -227 -227 c-124 -125 -229 -225 -232 -222 -3 3
-333 332 -734 731 l-728 726 -474 -474 -474 -474 732 -732 733 -733 -230 -230
-230 -230 -962 962 -963 963 932 932 932 932 131 -127 c71 -70 504 -503 962
-962z m-152 -1280 l959 -961 -934 -934 -935 -935 -962 962 -963 963 230 230
230 230 733 -733 732 -732 475 475 475 475 -733 733 -732 732 227 228 c126
125 230 227 233 227 3 0 437 -432 965 -960z"/>
</g>
</svg>
